# xmcd
#
# Track frame offsets: 
#        150
#        14619
#        28508
#        54192
#        73483
#        137274
#        172912
#        197152
#        230894
#
# Disc length: 3324 seconds
#
# Revision: 1
# Processed by: cddbd v1.5.1PL2 Copyright (c) Steve Scherf et al.
# Submitted via: ExactAudioCopy v0.95b3
#
DISCID=790cfa09
DTITLE=Antigone Rising - Traveling Circus
DYEAR=2003
DGENRE=Alt. Pop/Rock
TTITLE0=Goin' Down
TTITLE1=Choke
TTITLE2=What?
TTITLE3=New Jersey
TTITLE4=Storybook Romance
TTITLE5=Longshot
TTITLE6=Push It
TTITLE7=Buying Bridges
TTITLE8=Rock n' Roll
EXTD=
EXTT0=
EXTT1=
EXTT2=
EXTT3=
EXTT4=
EXTT5=
EXTT6=
EXTT7=
EXTT8=
PLAYORDER=
